<svg width="2001" height="429" viewBox="0 0 2001 429" fill="none" xmlns="http://www.w3.org/2000/svg">
<path d="M0.0926958 123.74C0.0926958 120.773 1.40107 119.305 4.04981 119.305H17.1339C18.0275 119.305 18.8891 119.56 19.7826 120.039C20.6762 120.518 21.4101 121.443 22.0484 122.815L81.8842 240.795L85.7137 252.22L84.501 240.699L83.5437 123.804C83.5437 122.528 83.8948 121.475 84.5649 120.613C85.2351 119.783 86.2563 119.337 87.6285 119.337H101.096C102.212 119.337 103.138 119.687 103.872 120.358C104.574 121.028 104.957 122.145 104.957 123.677V286.334C104.957 289.206 103.553 290.643 100.744 290.643H88.0114C87.1179 290.643 86.1924 290.419 85.2351 289.973C84.2777 289.526 83.5118 288.632 82.9693 287.26L23.4845 170.971L19.272 159.195L20.5804 171.099L21.3144 286.174C21.3144 289.142 20.038 290.611 17.4531 290.611H3.98602C1.33728 290.611 0.0288086 289.142 0.0288086 286.174V123.74H0.0926958Z" fill="#0F1826"/>
<path d="M248.756 286.048C249.234 287.42 249.17 288.505 248.564 289.366C247.958 290.196 247.064 290.611 245.851 290.611H230.342C229.449 290.611 228.587 290.388 227.693 289.877C226.8 289.367 226.225 288.473 225.906 287.133L217.864 255.54H165.975L158.06 287.133C157.741 288.505 157.135 289.399 156.273 289.877C155.38 290.356 154.518 290.611 153.625 290.611H138.115C136.902 290.611 136.041 290.196 135.466 289.366C134.892 288.537 134.828 287.42 135.211 286.048L180.974 122.911C181.356 121.539 181.963 120.582 182.729 120.039C183.495 119.497 184.356 119.21 185.314 119.21H198.653C199.61 119.21 200.504 119.497 201.302 120.039C202.1 120.614 202.706 121.571 203.121 122.911L248.787 286.048H248.756ZM171.144 235.339H212.822L193.834 160.121L192.015 147.388L190.228 160.121L171.113 235.339H171.144Z" fill="#0F1826"/>
<path d="M322.727 123.613C322.727 122.017 323.11 120.9 323.94 120.262C324.738 119.623 325.6 119.305 326.461 119.305H340.886C342.481 119.305 343.598 119.719 344.173 120.549C344.779 121.379 345.066 122.56 345.066 124.092L344.939 251.071C344.939 257.485 343.822 263.294 341.62 268.496C339.418 273.697 336.45 278.133 332.684 281.771C328.919 285.409 324.483 288.249 319.345 290.227C314.207 292.238 308.718 293.228 302.878 293.228C296.623 293.228 290.656 292.047 284.911 289.685C279.199 287.324 274.476 284.132 270.806 280.143C270.008 279.346 269.37 278.292 268.891 277.016C268.412 275.739 268.732 274.526 269.849 273.409L277.667 264.283C278.784 263.166 279.901 262.72 280.986 262.975C282.071 263.198 283.028 263.804 283.922 264.793C285.677 266.485 288.103 268.112 291.198 269.644C294.262 271.208 297.836 271.974 301.825 271.974C304.857 271.974 307.665 271.399 310.25 270.218C312.803 269.069 315.005 267.443 316.856 265.368C318.706 263.294 320.143 260.772 321.164 257.805C322.217 254.837 322.727 251.582 322.727 248.071V123.613Z" fill="#0F1826"/>
<path d="M378.095 174.545C378.095 166.599 379.212 159.132 381.446 152.079C383.679 145.027 387.03 138.836 391.466 133.506C395.902 128.177 401.423 123.964 408.061 120.901C414.666 117.805 422.325 116.273 431.069 116.273C439.813 116.273 447.345 117.805 453.951 120.901C460.557 123.996 466.109 128.177 470.641 133.442C475.172 138.74 478.555 144.899 480.853 151.952C483.151 159.004 484.267 166.504 484.267 174.418V235.562C484.267 243.476 483.119 250.976 480.853 258.029C478.555 265.081 475.172 271.24 470.705 276.538C466.205 281.835 460.652 286.016 454.014 289.079C447.377 292.175 439.718 293.706 431.069 293.706C422.421 293.706 414.794 292.175 408.252 289.079C401.678 286.016 396.157 281.803 391.689 276.538C387.19 271.24 383.807 265.081 381.541 258.029C379.276 250.976 378.127 243.476 378.127 235.562V174.545H378.095ZM400.306 237.03C400.306 242.008 400.976 246.636 402.284 250.976C403.593 255.316 405.571 259.05 408.188 262.209C410.805 265.369 413.996 267.857 417.794 269.708C421.591 271.559 426.027 272.485 431.069 272.485C436.112 272.485 440.547 271.559 444.409 269.708C448.27 267.857 451.493 265.369 454.142 262.209C456.791 259.05 458.769 255.316 460.078 251.04C461.386 246.764 462.056 242.136 462.056 237.158V172.886C462.056 168.003 461.386 163.408 460.014 159.132C458.642 154.856 456.663 151.09 454.078 147.899C451.461 144.707 448.238 142.154 444.409 140.271C440.579 138.388 436.112 137.463 431.069 137.463C426.027 137.463 421.687 138.388 417.858 140.239C414.028 142.09 410.805 144.612 408.188 147.803C405.571 150.994 403.625 154.76 402.284 159.1C400.976 163.44 400.306 168.035 400.306 172.918V237.062V237.03Z" fill="#0F1826"/>
<path d="M504.691 123.39C504.691 122.018 505.042 120.996 505.713 120.326C506.383 119.655 507.244 119.305 508.298 119.305H604.641C605.599 119.305 606.428 119.655 607.099 120.326C607.769 120.996 608.12 122.018 608.12 123.39V136.729C608.12 138.101 607.769 139.058 607.099 139.665C606.428 140.271 605.599 140.558 604.641 140.558H567.527V286.526C567.527 287.898 567.208 288.919 566.57 289.589C565.931 290.259 565.102 290.611 564.049 290.611H548.922C547.805 290.611 546.912 290.259 546.273 289.589C545.635 288.919 545.316 287.898 545.316 286.526V140.558H508.298C507.244 140.558 506.383 140.239 505.713 139.665C505.042 139.058 504.691 138.069 504.691 136.729V123.39Z" fill="#0F1826"/>
<path d="M1362.34 123.39C1362.34 122.018 1362.69 120.996 1363.36 120.326C1364.03 119.655 1364.89 119.305 1365.94 119.305H1462.29C1463.25 119.305 1464.08 119.655 1464.75 120.326C1465.42 120.996 1465.77 122.018 1465.77 123.39V136.729C1465.77 138.101 1465.42 139.058 1464.75 139.665C1464.08 140.271 1463.25 140.558 1462.29 140.558H1425.17V286.526C1425.17 287.898 1424.85 288.919 1424.22 289.589C1423.58 290.259 1422.72 290.611 1421.7 290.611H1406.57C1405.45 290.611 1404.56 290.259 1403.92 289.589C1403.28 288.919 1402.96 287.898 1402.96 286.526V140.558H1365.94C1364.89 140.558 1364.03 140.239 1363.36 139.665C1362.69 139.058 1362.34 138.069 1362.34 136.729V123.39Z" fill="#0F1826"/>
<path d="M1585.69 286.048C1586.17 287.42 1586.11 288.505 1585.5 289.366C1584.9 290.196 1584 290.611 1582.79 290.611H1567.31C1566.42 290.611 1565.56 290.388 1564.66 289.877C1563.77 289.399 1563.2 288.473 1562.88 287.133L1554.84 255.54H1502.95L1495 287.133C1494.68 288.505 1494.07 289.399 1493.21 289.877C1492.35 290.356 1491.46 290.611 1490.56 290.611H1475.05C1473.84 290.611 1472.98 290.196 1472.41 289.366C1471.86 288.537 1471.77 287.42 1472.15 286.048L1517.91 122.911C1518.33 121.539 1518.9 120.582 1519.67 120.039C1520.43 119.497 1521.3 119.21 1522.25 119.21H1535.59C1536.55 119.21 1537.44 119.497 1538.24 120.039C1539.04 120.614 1539.65 121.571 1540.06 122.911L1585.69 286.048ZM1508.08 235.339H1549.76L1530.77 160.121L1528.99 147.388L1527.17 160.121L1508.05 235.339H1508.08Z" fill="#0F1826"/>
<path d="M1612.63 124.571C1612.63 123.039 1613.01 121.827 1613.77 120.901C1614.54 119.976 1615.69 119.529 1617.19 119.529H1632.57C1635.6 119.529 1637.13 121.22 1637.13 124.571V145.122C1637.13 147.675 1636.69 149.878 1635.83 151.665C1634.93 153.452 1633.75 154.952 1632.28 156.101C1630.78 157.25 1629.09 158.111 1627.18 158.685C1625.26 159.26 1623.28 159.515 1621.27 159.515C1618.78 159.515 1617.54 158.526 1617.54 156.515V151.601C1617.54 150.643 1617.89 149.974 1618.63 149.559C1619.36 149.176 1620.19 148.952 1621.15 148.952C1622.26 148.952 1623.06 148.665 1623.48 148.123C1623.92 147.548 1624.15 146.751 1624.15 145.729C1624.15 144.708 1623.95 143.942 1623.6 143.495C1623.25 143.048 1622.58 142.825 1621.63 142.825H1616.71C1615.59 142.825 1614.64 142.474 1613.84 141.74C1613.04 141.006 1612.63 139.857 1612.63 138.262V124.571Z" fill="#0F1826"/>
<path d="M1679.2 123.74C1679.2 120.773 1680.51 119.305 1683.16 119.305H1697.45C1700.1 119.305 1701.41 120.773 1701.41 123.74V269.452H1757.51C1758.63 269.452 1759.52 269.74 1760.22 270.346C1760.89 270.952 1761.25 271.942 1761.25 273.282V286.494C1761.25 287.866 1760.89 288.887 1760.22 289.557C1759.55 290.227 1758.63 290.579 1757.51 290.579H1683.16C1680.51 290.579 1679.2 289.111 1679.2 286.143V123.708V123.74Z" fill="#0F1826"/>
<path d="M1796.83 123.74C1796.83 120.773 1798.2 119.305 1800.91 119.305H1815.21C1817.76 119.305 1819.07 120.773 1819.07 123.74V286.174C1819.07 289.142 1817.79 290.611 1815.21 290.611H1800.91C1798.2 290.611 1796.83 289.142 1796.83 286.174V123.74Z" fill="#0F1826"/>
<path d="M1892.12 171.8L1887.78 156.195L1889.21 171.704L1890.17 286.302C1890.33 289.174 1889.12 290.61 1886.56 290.61H1872.49C1871.22 290.61 1870.32 290.195 1869.84 289.397C1869.36 288.599 1869.14 287.515 1869.14 286.143V123.102C1869.2 121.889 1869.56 120.931 1870.16 120.229C1870.77 119.495 1871.63 119.145 1872.75 119.145H1889.69C1890.75 119.145 1891.48 119.464 1891.93 120.102C1892.37 120.741 1892.79 121.634 1893.2 122.751L1932.68 227.519L1934.59 237.476L1936.51 227.392L1976.21 122.751C1976.62 121.634 1977.04 120.741 1977.48 120.102C1977.93 119.464 1978.66 119.145 1979.72 119.145H1996.44C1997.56 119.145 1998.42 119.495 1998.99 120.229C1999.6 120.963 1999.92 121.921 2000.01 123.102V286.143C2000.17 289.111 1999.09 290.578 1996.79 290.578H1982.69C1980.29 290.578 1979.11 289.142 1979.11 286.27L1980.2 171.768L1981.5 156.642L1977.42 171.768L1943.78 260.293C1943.37 261.666 1942.89 262.591 1942.35 263.133C1941.81 263.644 1941.04 263.899 1940.08 263.899H1929.26C1928.37 263.899 1927.67 263.644 1927.09 263.133C1926.55 262.623 1926.04 261.666 1925.66 260.293L1892.15 171.768L1892.12 171.8Z" fill="#0F1826"/>
<path d="M1305.09 128.751L1288.11 131.687C1253.55 137.686 1221.38 146.814 1192.09 157.6V64.8942L1183.06 68.9472C1162.54 78.1699 1143.07 87.8069 1124.5 97.9551L1123.89 0.813797L1114.06 7.10045C1066.26 37.6407 1022.44 72.298 983.315 110.497C945.627 74.851 903.119 40.2576 856.495 7.26017L846.379 0.111816V100.796C826.178 89.4349 805.467 79.0954 784.277 69.8408L775.246 65.8837L775.661 152.079C744.706 141.452 713.527 134.496 682.636 131.368L667.446 129.836L789.128 281.931L788.586 170.62C809.488 178.789 828.859 188.108 846.347 197.713V294.09L847.624 295.78C883.397 343.936 977.507 422.282 981.496 425.601L985.581 428.983L989.666 425.633C993.655 422.346 1087.83 344.83 1123.63 294.792L1125.74 291.185L1125.17 201.448C1141.63 192.799 1159.7 184.247 1179.26 176.332V282.441L1305.06 128.815L1305.09 128.751ZM1192.12 171.29C1217.01 161.908 1244.1 153.674 1273.05 147.643L1192.12 246.508V171.29ZM696.837 146.047C724.793 150.068 751.216 157.089 775.725 165.801L776.108 245.136L696.837 146.047ZM1111.16 24.3017L1111.28 105.391C1082.66 121.826 1056.2 139.633 1031.31 159.323C1025.89 153.355 1020.33 147.42 1014.62 141.484C1007.47 134.048 1000.07 126.645 992.474 119.305C1028.18 84.4886 1067.63 52.9272 1111.16 24.3017ZM895.62 212.681C883.621 204.607 871.462 197.076 859.208 190.087V123.134C882.983 137.527 905.991 153.355 928.075 170.556C916.842 184.151 906.023 198.193 895.62 212.681ZM938 178.439C950.509 188.555 962.7 199.086 974.571 210.064C963.115 221.616 951.913 233.743 940.935 246.508C930.787 238.147 919.107 229.148 906.087 219.925C916.299 205.692 926.926 191.842 938 178.439ZM1021.42 167.301C1008.46 177.991 995.921 189.225 983.698 201.032C971.572 189.799 959.062 178.981 946.265 168.642C958.168 154.728 970.55 141.26 983.475 128.24C996.846 141.196 1009.48 154.217 1021.42 167.301ZM1019.47 255.347C1002.3 269.134 990.432 280.271 984.305 286.302C978.401 280.111 967.008 268.719 950.765 254.741C961.583 242.168 972.625 230.233 983.922 218.84C996.176 230.552 1008.02 242.742 1019.47 255.347ZM942.467 264.571C965.987 284.867 979.167 299.61 979.358 299.833L984.017 305.099L988.836 299.961C989.028 299.738 1002.78 285.186 1028.06 264.953C1036.1 274.112 1043.92 283.526 1051.54 293.1L986.028 355.042L919.49 293.547C927.086 283.526 934.713 273.889 942.467 264.571ZM993.081 209.84C1005.05 198.288 1017.33 187.31 1030 176.874C1043.02 191.65 1055.12 206.458 1066.26 221.329C1065.04 222.127 1063.89 222.893 1062.71 223.659C1050.36 231.924 1039.29 239.934 1029.59 247.401C1017.81 234.413 1005.65 221.903 993.049 209.84M1039.9 168.896C1062.23 151.281 1085.88 135.165 1111.28 120.23L1111.41 194.235C1098.9 201.033 1087.41 207.83 1077.01 214.404C1065.65 199.213 1053.27 184.055 1039.93 168.896M859.176 24.9717C901.587 55.5758 940.106 87.2006 974.284 119.464C967.582 126.198 961.04 133.027 954.658 139.984C948.435 146.75 942.308 153.675 936.308 160.727C911.672 141.516 885.918 123.964 859.208 108.2V25.0037L859.176 24.9717ZM807.031 164.173C800.872 161.557 794.713 159.068 788.522 156.738L788.171 85.6373C807.988 94.6685 827.423 104.657 846.347 115.571V183.034C833.327 176.109 820.211 169.79 806.999 164.173M888.216 223.148C878.1 237.732 868.399 252.731 859.176 268.081V204.894C869.643 211.021 879.345 217.149 888.216 223.116M985.645 412.261C967.391 396.847 892.748 332.959 860.452 291.409C872.451 270.251 885.216 249.922 898.715 230.392C911.353 239.327 922.745 248.135 932.67 256.305C923.575 267.251 914.608 278.612 905.768 290.483L902.29 295.11L986.124 372.626L1068.84 294.408L1065.27 289.813C1056.52 278.612 1047.49 267.666 1038.17 257.039C1047.52 249.891 1058.12 242.199 1069.86 234.349C1071.17 233.487 1072.51 232.594 1073.85 231.701C1087.92 251.295 1100.31 270.921 1110.87 290.483C1078.73 333.405 1003.93 396.975 985.613 412.293M1111.54 265.687C1103.4 252.092 1094.43 238.434 1084.61 224.743C1092.87 219.541 1101.84 214.212 1111.44 208.851L1111.54 265.687ZM1125.1 187.023L1124.62 112.603C1141.98 102.87 1160.17 93.6473 1179.29 84.8076V162.514C1159.79 170.205 1141.66 178.535 1125.1 187.055" fill="#0EB182"/>
</svg>
