<svg width="2001" height="314" viewBox="0 0 2001 314" fill="none" xmlns="http://www.w3.org/2000/svg">
<path d="M561.253 69.4348C561.253 66.2494 562.69 64.6426 565.537 64.6426H579.632C580.59 64.6426 581.521 64.8963 582.479 65.4037C583.409 65.9111 584.255 66.9259 584.932 68.3918L653.459 207.674L651.148 69.4348C651.148 68.0535 651.514 66.9259 652.247 65.9957C652.98 65.0936 654.08 64.6426 655.545 64.6426H670.035C671.247 64.6426 672.233 65.0091 672.994 65.742C673.784 66.4749 674.15 67.6589 674.15 69.2939V244.377C674.15 247.478 672.628 249.028 669.612 249.028H655.912C654.953 249.028 653.967 248.802 652.924 248.323C651.881 247.844 651.063 246.886 650.471 245.42L581.944 107.575L584.142 244.264C584.142 247.449 582.761 249.056 579.999 249.056H565.509C562.662 249.056 561.225 247.449 561.225 244.264V69.4348H561.253Z" fill="#FFFFFF"/>
<path d="M828.905 244.122C829.412 245.588 829.356 246.772 828.708 247.674C828.059 248.576 827.101 249.027 825.804 249.027H809.116C808.158 249.027 807.227 248.773 806.269 248.266C805.311 247.759 804.662 246.772 804.324 245.278L795.67 211.282H739.799L731.258 245.278C730.919 246.744 730.271 247.73 729.313 248.266C728.354 248.773 727.424 249.027 726.465 249.027H709.778C708.481 249.027 707.522 248.576 706.93 247.674C706.338 246.772 706.226 245.588 706.677 244.122L755.951 68.5039C756.374 67.038 757.023 65.995 757.84 65.4031C758.657 64.7829 759.588 64.501 760.631 64.501H774.979C776.022 64.501 776.952 64.8111 777.826 65.4031C778.672 65.995 779.32 67.038 779.771 68.5039L828.905 244.122ZM745.38 189.548H790.258L767.875 94.8889L745.38 189.548Z" fill="#FFFFFF"/>
<path d="M908.542 69.2939C908.542 67.5743 908.965 66.3622 909.839 65.6856C910.713 65.0091 911.615 64.6426 912.545 64.6426H928.077C929.797 64.6426 930.981 65.0936 931.629 65.9957C932.277 66.8977 932.616 68.1663 932.616 69.8012L932.475 206.491C932.475 213.397 931.291 219.627 928.923 225.236C926.555 230.846 923.341 235.61 919.282 239.528C915.223 243.446 910.431 246.491 904.934 248.633C899.409 250.776 893.517 251.847 887.231 251.847C880.494 251.847 874.067 250.578 867.893 248.041C861.72 245.504 856.674 242.065 852.699 237.752C851.854 236.878 851.149 235.779 850.642 234.398C850.134 233.016 850.472 231.72 851.685 230.508L860.085 220.698C861.297 219.486 862.481 219.006 863.637 219.26C864.793 219.514 865.864 220.162 866.794 221.205C868.683 223.009 871.304 224.757 874.631 226.448C877.957 228.14 881.762 228.957 886.075 228.957C889.345 228.957 892.362 228.337 895.124 227.097C897.887 225.857 900.254 224.109 902.228 221.854C904.201 219.598 905.751 216.892 906.879 213.707C908.007 210.522 908.57 207.026 908.57 203.221V69.2939H908.542Z" fill="#FFFFFF"/>
<path d="M968.133 124.12C968.133 115.579 969.345 107.517 971.741 99.9339C974.165 92.351 977.745 85.6984 982.537 79.9478C987.329 74.2254 993.249 69.687 1000.38 66.3606C1007.48 63.0343 1015.74 61.3711 1025.16 61.3711C1034.46 61.3711 1042.69 63.0343 1049.8 66.3606C1056.9 69.687 1062.9 74.1972 1067.78 79.8914C1072.66 85.5856 1076.32 92.2101 1078.78 99.7929C1081.23 107.376 1082.47 115.438 1082.47 123.979V189.801C1082.47 198.342 1081.23 206.404 1078.78 213.987C1076.32 221.57 1072.69 228.223 1067.84 233.917C1063.02 239.611 1057.01 244.121 1049.85 247.42C1042.69 250.746 1034.46 252.409 1025.16 252.409C1015.86 252.409 1007.65 250.746 1000.58 247.42C993.503 244.093 987.555 239.583 982.735 233.917C977.914 228.223 974.25 221.598 971.797 213.987C969.345 206.404 968.104 198.342 968.104 189.801V124.12H968.133ZM992.037 191.38C992.037 196.735 992.742 201.725 994.179 206.376C995.617 211.027 997.703 215.059 1000.52 218.469C1003.31 221.88 1006.78 224.558 1010.87 226.56C1014.95 228.533 1019.72 229.52 1025.16 229.52C1030.6 229.52 1035.36 228.533 1039.51 226.56C1043.65 224.586 1047.15 221.88 1049.99 218.469C1052.84 215.059 1054.98 211.056 1056.39 206.433C1057.83 201.81 1058.54 196.848 1058.54 191.492V122.316C1058.54 117.045 1057.8 112.112 1056.34 107.517C1054.87 102.922 1052.73 98.8909 1049.94 95.4237C1047.12 91.9846 1043.68 89.2503 1039.54 87.2207C1035.39 85.1911 1030.63 84.1762 1025.19 84.1762C1019.83 84.1762 1015.1 85.1628 1010.95 87.1642C1006.81 89.1375 1003.34 91.8719 1000.55 95.311C997.731 98.75 995.645 102.809 994.208 107.46C992.798 112.112 992.065 117.073 992.065 122.316V191.38H992.037Z" fill="#FFFFFF"/>
<path d="M1104.4 69.0401C1104.4 67.5742 1104.77 66.4749 1105.5 65.742C1106.23 65.0091 1107.16 64.6426 1108.29 64.6426H1212C1213.04 64.6426 1213.92 65.0091 1214.65 65.742C1215.38 66.4749 1215.75 67.5742 1215.75 69.0401V83.3884C1215.75 84.8542 1215.38 85.8972 1214.65 86.5737C1213.92 87.2221 1213.04 87.5323 1212 87.5323H1172.03V244.659C1172.03 246.124 1171.69 247.224 1170.98 247.957C1170.28 248.69 1169.38 249.056 1168.28 249.056H1151.99C1150.77 249.056 1149.84 248.69 1149.14 247.957C1148.46 247.224 1148.1 246.124 1148.1 244.659V87.5323H1108.26C1107.14 87.5323 1106.21 87.1939 1105.47 86.5737C1104.74 85.9254 1104.37 84.8824 1104.37 83.3884V69.0401H1104.4Z" fill="#FFFFFF"/>
<path d="M1313.82 69.1524C1313.82 67.6865 1314.19 66.5872 1314.92 65.8543C1315.65 65.1214 1316.58 64.7549 1317.71 64.7549H1421.42C1422.46 64.7549 1423.34 65.1214 1424.07 65.8543C1424.8 66.5872 1425.17 67.6865 1425.17 69.1524V83.5007C1425.17 84.9666 1424.8 86.0096 1424.07 86.6861C1423.34 87.3345 1422.43 87.6445 1421.42 87.6445H1381.45V244.771C1381.45 246.237 1381.11 247.336 1380.4 248.069C1379.73 248.802 1378.8 249.168 1377.7 249.168H1361.4C1360.19 249.168 1359.23 248.802 1358.56 248.069C1357.85 247.336 1357.51 246.237 1357.51 244.771V87.6445H1317.68C1316.56 87.6445 1315.63 87.3063 1314.89 86.6861C1314.16 86.0378 1313.79 84.9948 1313.79 83.5007V69.1524H1313.82Z" fill="#FFFFFF"/>
<path d="M1554.24 244.264C1554.75 245.73 1554.69 246.914 1554.04 247.816C1553.4 248.718 1552.44 249.169 1551.14 249.169H1534.45C1533.49 249.169 1532.56 248.915 1531.61 248.408C1530.65 247.9 1530 246.914 1529.66 245.42L1521.01 211.424H1465.14L1456.59 245.42C1456.26 246.886 1455.61 247.872 1454.65 248.408C1453.69 248.915 1452.76 249.169 1451.8 249.169H1435.11C1433.82 249.169 1432.89 248.718 1432.27 247.816C1431.68 246.914 1431.56 245.73 1432.01 244.264L1481.29 68.6455C1481.71 67.1796 1482.33 66.1366 1483.18 65.5447C1483.99 64.9245 1484.92 64.6426 1485.94 64.6426H1500.29C1501.33 64.6426 1502.26 64.9527 1503.13 65.5447C1503.98 66.1366 1504.63 67.1796 1505.08 68.6455L1554.24 244.264ZM1470.69 189.69H1515.57L1493.21 95.0305L1470.69 189.69Z" fill="#FFFFFF"/>
<path d="M1583.22 70.4493C1583.22 68.8143 1583.61 67.4894 1584.43 66.5028C1585.25 65.5162 1586.49 65.0088 1588.12 65.0088H1604.67C1607.94 65.0088 1609.58 66.8129 1609.58 70.4493V92.5496C1609.58 95.3121 1609.1 97.6518 1608.17 99.5969C1607.21 101.542 1605.94 103.121 1604.36 104.389C1602.75 105.629 1600.95 106.56 1598.86 107.18C1596.81 107.772 1594.66 108.082 1592.52 108.082C1589.84 108.082 1588.52 107.011 1588.52 104.84V99.5406C1588.52 98.4976 1588.91 97.7646 1589.67 97.3418C1590.44 96.9189 1591.37 96.6935 1592.38 96.6935C1593.59 96.6935 1594.41 96.3834 1594.89 95.7914C1595.37 95.1994 1595.59 94.3256 1595.59 93.198C1595.59 92.0705 1595.4 91.2811 1595 90.8019C1594.61 90.3226 1593.9 90.0971 1592.86 90.0971H1587.56C1586.35 90.0971 1585.31 89.7026 1584.46 88.9414C1583.59 88.1522 1583.16 86.9118 1583.16 85.1922V70.4493H1583.22Z" fill="#FFFFFF"/>
<path d="M1654.91 69.5471C1654.91 66.3617 1656.34 64.7549 1659.16 64.7549H1674.55C1677.4 64.7549 1678.81 66.3335 1678.81 69.5471V226.42H1739.19C1740.4 226.42 1741.36 226.758 1742.09 227.378C1742.83 228.027 1743.19 229.07 1743.19 230.535V244.771C1743.19 246.237 1742.83 247.336 1742.09 248.069C1741.36 248.802 1740.4 249.168 1739.19 249.168H1659.13C1656.29 249.168 1654.88 247.562 1654.88 244.376V69.5471H1654.91Z" fill="#FFFFFF"/>
<path d="M1781.53 69.5471C1781.53 66.3617 1783 64.7549 1785.93 64.7549H1801.32C1804.08 64.7549 1805.46 66.3335 1805.46 69.5471V244.376C1805.46 247.562 1804.08 249.168 1801.32 249.168H1785.93C1783 249.168 1781.53 247.562 1781.53 244.376V69.5471Z" fill="#FFFFFF"/>
<path d="M1879.43 104.474L1882.02 244.518C1882.19 247.619 1880.9 249.169 1878.13 249.169H1863C1861.62 249.169 1860.66 248.746 1860.15 247.872C1859.64 247.027 1859.39 245.843 1859.39 244.377V68.8992C1859.47 67.6025 1859.84 66.5595 1860.49 65.7983C1861.14 65.009 1862.07 64.6426 1863.28 64.6426H1881.52C1882.64 64.6426 1883.43 64.9809 1883.91 65.6856C1884.39 66.3622 1884.84 67.3206 1885.27 68.5327L1929.81 192.029L1974.63 68.5327C1975.05 67.3206 1975.5 66.3904 1975.98 65.6856C1976.43 65.0091 1977.25 64.6426 1978.38 64.6426H1996.39C1997.6 64.6426 1998.5 65.0372 1999.15 65.7983C1999.8 66.5595 2000.17 67.6025 2000.25 68.8992V244.377C2000.42 247.562 1999.26 249.169 1996.78 249.169H1981.62C1979.05 249.169 1977.75 247.619 1977.75 244.518L1980.32 104.981L1939.73 216.582C1939.3 218.048 1938.77 219.063 1938.18 219.627C1937.56 220.19 1936.74 220.472 1935.73 220.472H1924.08C1923.12 220.472 1922.36 220.19 1921.77 219.627C1921.15 219.063 1920.64 218.048 1920.22 216.582L1879.43 104.474Z" fill="#FFFFFF"/>
<path d="M465.576 94.318L453.192 96.4641C427.96 100.843 404.497 107.514 383.123 115.374V47.7408L376.539 50.699C361.545 57.4275 347.363 64.446 333.82 71.8705L333.355 0.989544L326.192 5.57191C291.303 27.8455 259.313 53.1643 230.775 81.0352C203.281 55.0204 172.249 29.7595 138.201 5.68786L130.806 0.467529V73.9297C116.073 65.6351 100.933 58.0946 85.5043 51.3371L78.921 48.4658L79.2399 111.371C56.6474 103.599 33.9099 98.5524 11.3464 96.2613L0.267578 95.1302L89.0717 206.121L88.6656 124.886C103.921 130.832 118.045 137.647 130.834 144.637V214.967L131.763 216.214C157.864 251.364 226.57 308.527 229.47 310.963L232.428 313.428L235.416 310.963C238.316 308.585 307.051 252.002 333.181 215.459L334.719 212.82L334.312 147.334C346.319 141.011 359.515 134.776 373.784 129.004V206.44L465.576 94.318ZM383.123 125.321C401.307 118.477 421.057 112.473 442.2 108.065L383.123 180.193V125.321ZM21.6711 106.905C42.0885 109.834 61.3747 114.967 79.2399 121.319L79.5299 179.207L21.6711 106.905ZM324.046 18.0718L324.133 77.2648C303.251 89.2716 283.936 102.265 265.781 116.621C261.837 112.27 257.776 107.949 253.6 103.599C248.38 98.1753 242.985 92.7809 237.446 87.4155C263.49 61.9807 292.288 38.9532 324.046 18.0718ZM166.739 155.541C157.98 149.654 149.135 144.143 140.173 139.068V90.1998C157.545 100.699 174.309 112.241 190.434 124.799C182.226 134.718 174.308 144.985 166.739 155.541ZM197.684 130.571C206.82 137.937 215.723 145.652 224.366 153.656C216.013 162.096 207.835 170.941 199.83 180.251C192.406 174.161 183.908 167.577 174.395 160.849C181.849 150.437 189.593 140.344 197.684 130.571ZM258.559 122.421C249.105 130.223 239.94 138.401 231.036 147.044C222.162 138.836 213.055 130.948 203.716 123.407C212.417 113.256 221.466 103.425 230.862 93.9121C240.607 103.367 249.859 112.879 258.559 122.421ZM257.138 186.69C244.609 196.753 235.938 204.874 231.471 209.282C227.15 204.758 218.855 196.463 206.994 186.254C214.882 177.09 222.945 168.36 231.181 160.066C240.143 168.621 248.786 177.496 257.138 186.69ZM200.932 193.418C218.102 208.238 227.701 218.998 227.846 219.143L231.239 223L234.749 219.259C234.894 219.114 244.928 208.47 263.374 193.708C269.232 200.407 274.945 207.252 280.514 214.27L232.689 259.485L184.14 214.589C189.708 207.252 195.277 200.233 200.932 193.418ZM237.881 153.482C246.61 145.043 255.572 137.038 264.824 129.411C274.336 140.199 283.153 151.017 291.273 161.864C290.403 162.444 289.533 162.995 288.692 163.575C279.673 169.607 271.61 175.466 264.505 180.918C255.949 171.435 247.046 162.27 237.881 153.482ZM272.045 123.581C288.344 110.733 305.6 98.9874 324.133 88.0827L324.22 142.084C315.113 147.044 306.703 152.003 299.104 156.788C290.838 145.739 281.79 134.631 272.045 123.581ZM140.173 18.5648C171.147 40.8963 199.221 63.982 224.163 87.5026C219.291 92.4329 214.505 97.4212 209.836 102.468C205.283 107.427 200.816 112.473 196.437 117.607C178.456 103.57 159.662 90.7798 140.144 79.266V18.5648H140.173ZM102.094 120.159C97.5982 118.245 93.103 116.418 88.5787 114.736L88.3176 62.8509C102.79 69.4344 116.972 76.7138 130.777 84.6893V133.935C121.293 128.86 111.722 124.248 102.094 120.159ZM161.345 163.198C153.949 173.842 146.902 184.775 140.173 195.999V149.886C147.801 154.352 154.877 158.847 161.345 163.198ZM232.428 301.218C219.117 289.966 164.651 243.33 141.072 213.023C149.831 197.594 159.14 182.745 169.001 168.505C178.224 175.031 186.518 181.44 193.769 187.415C187.127 195.39 180.602 203.685 174.135 212.356L171.611 215.721L232.806 272.275L293.188 215.198L290.577 211.834C284.197 203.656 277.614 195.68 270.798 187.908C277.614 182.687 285.357 177.09 293.942 171.347C294.899 170.709 295.856 170.071 296.842 169.404C307.109 183.702 316.128 198.029 323.872 212.298C300.38 243.649 245.798 290.053 232.428 301.218ZM324.307 194.259C318.361 184.34 311.836 174.364 304.644 164.387C310.676 160.588 317.23 156.701 324.22 152.786L324.307 194.259ZM334.225 136.806L333.877 82.4853C346.551 75.3798 359.805 68.6513 373.784 62.1838V118.883C359.544 124.538 346.319 130.6 334.225 136.806Z" fill="#FFFFFF"/>
</svg>
