<svg width="2001" height="1498" viewBox="0 0 2001 1498" fill="none" xmlns="http://www.w3.org/2000/svg">
<path d="M0.471188 1224.48C0.471188 1219.71 2.65195 1217.33 6.82188 1217.33H27.8713C29.2613 1217.33 30.6505 1217.73 32.0404 1218.52C33.4304 1219.31 34.6253 1220.7 35.6182 1222.89L131.916 1412.72L138.073 1430.99L136.095 1412.52L134.505 1224.48C134.505 1222.49 135.102 1220.7 136.095 1219.31C137.286 1217.92 138.875 1217.33 141.059 1217.33H162.7C164.487 1217.33 166.07 1217.92 167.063 1218.92C168.254 1220.11 168.857 1221.7 168.857 1224.28V1485.99C168.857 1490.56 166.666 1492.94 162.099 1492.94H141.65C140.261 1492.94 138.668 1492.54 137.278 1491.95C135.689 1491.15 134.499 1489.76 133.506 1487.58L37.7997 1300.53L31.0515 1281.66L33.233 1300.73L34.4256 1485.79C34.4256 1490.56 32.4387 1492.94 28.2688 1492.94H6.62797C2.45803 1492.94 0.267578 1490.56 0.267578 1485.79V1224.48H0.471188Z" fill="#0F1826"/>
<path d="M393.042 1485.4C393.836 1487.58 393.632 1489.37 392.838 1490.76C392.044 1492.15 390.461 1492.74 388.475 1492.74H363.45C362.06 1492.74 360.671 1492.35 359.281 1491.55C357.891 1490.76 356.9 1489.37 356.305 1487.18L343.4 1436.35H259.997L247.286 1487.18C246.69 1489.37 245.898 1490.76 244.309 1491.55C242.919 1492.35 241.53 1492.74 240.14 1492.74H215.125C213.14 1492.74 211.741 1492.15 210.946 1490.76C210.152 1489.37 209.963 1487.58 210.559 1485.4L284.227 1223.09C284.822 1220.9 285.808 1219.32 287 1218.52C288.191 1217.53 289.58 1217.13 291.169 1217.13H312.616C314.204 1217.13 315.593 1217.53 316.785 1218.52C317.976 1219.51 318.977 1220.9 319.771 1223.09L393.042 1485.4ZM268.335 1403.98H335.449L304.878 1283.06L301.892 1262.6L298.916 1283.06L268.335 1403.98Z" fill="#0F1826"/>
<path d="M504.626 1224.28C504.626 1221.7 505.224 1219.91 506.614 1218.92C507.805 1217.92 509.199 1217.33 510.589 1217.33H533.82C536.402 1217.33 538.189 1217.92 539.182 1219.31C540.175 1220.7 540.568 1222.49 540.568 1225.07L540.375 1429.4C540.375 1439.72 538.587 1449.06 535.013 1457.4C531.439 1465.74 526.669 1472.89 520.712 1478.84C514.556 1484.8 507.406 1489.17 499.265 1492.54C490.925 1495.72 482.196 1497.31 472.863 1497.31C462.736 1497.31 453.201 1495.32 444.067 1491.55C434.933 1487.78 427.186 1482.62 421.428 1476.26C420.236 1474.87 419.051 1473.28 418.257 1471.3C417.463 1469.31 418.05 1467.33 419.837 1465.54L432.355 1450.84C434.142 1449.06 435.929 1448.26 437.716 1448.66C439.503 1449.06 441.087 1450.05 442.477 1451.64C445.257 1454.42 449.225 1457 454.189 1459.38C459.154 1461.96 464.919 1463.16 471.273 1463.16C476.237 1463.16 480.6 1462.16 484.77 1460.38C488.94 1458.59 492.515 1455.81 495.493 1452.63C498.472 1449.26 500.856 1445.28 502.445 1440.52C504.033 1435.75 505.024 1430.59 505.024 1424.83V1224.28H504.626Z" fill="#0F1826"/>
<path d="M586.248 1306.09C586.248 1293.38 588.036 1281.27 591.61 1269.95C595.184 1258.63 600.547 1248.7 607.695 1240.17C614.843 1231.63 623.776 1224.88 634.3 1219.91C645.023 1214.95 657.331 1212.56 671.231 1212.56C685.131 1212.56 697.444 1214.95 707.968 1219.91C718.492 1224.88 727.628 1231.63 734.777 1240.17C742.124 1248.7 747.487 1258.63 751.259 1269.95C755.032 1281.27 756.815 1293.38 756.815 1306.09V1404.38C756.815 1417.09 755.032 1429.2 751.259 1440.52C747.487 1451.84 742.119 1461.77 734.971 1470.31C727.822 1478.84 718.885 1485.6 708.162 1490.56C697.439 1495.52 685.131 1497.91 671.231 1497.91C657.331 1497.91 645.018 1495.33 634.494 1490.56C623.97 1485.6 615.037 1478.84 607.889 1470.31C600.74 1461.77 595.184 1451.84 591.61 1440.52C588.036 1429.2 586.044 1417.09 586.044 1404.38V1306.09H586.248ZM621.986 1406.57C621.986 1414.51 622.982 1422.05 625.167 1429C627.351 1435.95 630.528 1441.91 634.698 1447.07C638.867 1452.24 644.026 1456.21 650.182 1459.19C656.337 1462.16 663.487 1463.55 671.629 1463.55C679.77 1463.55 686.92 1462.16 693.075 1459.19C699.231 1456.21 704.395 1452.24 708.763 1447.07C712.933 1441.91 716.11 1435.95 718.294 1429.2C720.478 1422.25 721.474 1414.91 721.474 1406.96V1303.51C721.474 1295.57 720.275 1288.22 718.09 1281.47C715.906 1274.52 712.729 1268.56 708.559 1263.4C704.39 1258.24 699.231 1254.07 693.075 1251.09C686.92 1248.11 679.77 1246.52 671.629 1246.52C663.686 1246.52 656.541 1247.91 650.385 1250.89C644.23 1253.87 639.061 1257.84 634.891 1263C630.722 1268.16 627.545 1274.12 625.361 1281.07C623.176 1288.02 622.19 1295.37 622.19 1303.31V1406.57H621.986Z" fill="#0F1826"/>
<path d="M782.431 1223.88C782.431 1221.7 783.028 1220.11 784.021 1218.92C785.014 1217.73 786.403 1217.33 788.19 1217.33H943.069C944.658 1217.33 945.853 1217.92 947.045 1218.92C948.037 1220.11 948.635 1221.7 948.635 1223.88V1245.33C948.635 1247.51 948.037 1249.1 947.045 1250.09C945.853 1251.08 944.658 1251.48 943.069 1251.48H883.305V1486.19C883.305 1488.37 882.708 1489.96 881.715 1491.15C880.722 1492.35 879.328 1492.74 877.74 1492.74H853.316C851.529 1492.74 850.14 1492.15 849.147 1491.15C848.154 1489.96 847.557 1488.37 847.557 1486.19V1251.48H787.986C786.398 1251.48 785.009 1251.08 783.817 1250.09C782.626 1249.1 782.227 1247.51 782.227 1245.33V1223.88H782.431Z" fill="#0F1826"/>
<path d="M1048.51 1223.88C1048.51 1221.7 1049.11 1220.11 1050.1 1218.92C1051.09 1217.73 1052.48 1217.33 1054.27 1217.33H1209.15C1210.74 1217.33 1211.93 1217.92 1213.13 1218.92C1214.32 1219.91 1214.72 1221.7 1214.72 1223.88V1245.33C1214.72 1247.51 1214.12 1249.1 1213.13 1250.09C1211.93 1251.08 1210.74 1251.48 1209.15 1251.48H1149.39V1486.19C1149.39 1488.37 1148.79 1489.96 1147.8 1491.15C1146.8 1492.35 1145.42 1492.74 1143.83 1492.74H1119.4C1117.61 1492.74 1116.22 1492.15 1115.23 1491.15C1114.23 1489.96 1113.65 1488.37 1113.65 1486.19V1251.48H1054.08C1052.49 1251.48 1051.09 1251.08 1049.9 1250.09C1048.71 1249.1 1048.32 1247.51 1048.32 1245.33V1223.88H1048.51Z" fill="#0F1826"/>
<path d="M1392.82 1485.4C1393.62 1487.58 1393.42 1489.37 1392.63 1490.76C1391.64 1492.15 1390.24 1492.74 1388.26 1492.74H1363.43C1362.04 1492.74 1360.66 1492.35 1359.27 1491.55C1357.88 1490.76 1356.88 1489.37 1356.29 1487.18L1343.38 1436.35H1259.98L1247.28 1487.18C1246.68 1489.37 1245.88 1490.76 1244.29 1491.55C1242.9 1492.35 1241.51 1492.74 1240.12 1492.74H1215.3C1213.32 1492.74 1211.93 1492.15 1211.13 1490.76C1210.34 1489.37 1210.14 1487.58 1210.74 1485.4L1284.4 1223.09C1285 1220.9 1286 1219.32 1287.19 1218.52C1288.38 1217.53 1289.77 1217.13 1291.36 1217.13H1312.8C1314.39 1217.13 1315.78 1217.53 1316.97 1218.52C1318.16 1219.51 1319.16 1220.9 1319.95 1223.09L1392.82 1485.4ZM1268.13 1403.98H1335.24L1304.66 1283.06L1301.68 1262.6L1298.71 1283.06L1268.13 1403.98Z" fill="#0F1826"/>
<path d="M1421.43 1225.67C1421.43 1223.29 1422.02 1221.3 1423.21 1219.71C1424.4 1218.32 1426.19 1217.53 1428.77 1217.53H1453.59C1458.55 1217.53 1460.94 1220.31 1460.94 1225.67V1258.63C1460.94 1262.8 1460.15 1266.18 1458.76 1269.16C1457.37 1272.14 1455.38 1274.52 1453 1276.3C1450.61 1278.09 1447.83 1279.48 1444.85 1280.47C1441.67 1281.47 1438.7 1281.86 1435.32 1281.86C1431.35 1281.86 1429.37 1280.28 1429.37 1277.1V1269.16C1429.37 1267.57 1429.96 1266.58 1431.15 1265.78C1432.34 1265.19 1433.74 1264.79 1435.13 1264.79C1436.91 1264.79 1438.1 1264.39 1438.9 1263.4C1439.69 1262.41 1439.89 1261.21 1439.89 1259.63C1439.89 1258.04 1439.69 1256.85 1439.09 1256.05C1438.5 1255.26 1437.51 1255.06 1435.92 1255.06H1427.97C1426.18 1255.06 1424.6 1254.46 1423.4 1253.27C1422.21 1252.08 1421.43 1250.29 1421.43 1247.71V1225.67Z" fill="#0F1826"/>
<path d="M1513.56 1224.48C1513.56 1219.71 1515.75 1217.33 1519.92 1217.33H1542.94C1547.11 1217.33 1549.3 1219.71 1549.3 1224.48V1458.79H1639.45C1641.24 1458.79 1642.63 1459.18 1643.82 1460.18C1644.81 1461.17 1645.41 1462.76 1645.41 1464.94V1486.19C1645.41 1488.37 1644.81 1489.96 1643.82 1491.15C1642.63 1492.35 1641.24 1492.74 1639.45 1492.74H1519.92C1515.75 1492.74 1513.56 1490.36 1513.56 1485.59V1224.48Z" fill="#0F1826"/>
<path d="M1687.9 1224.48C1687.9 1219.71 1690.09 1217.33 1694.46 1217.33H1717.49C1721.66 1217.33 1723.64 1219.71 1723.64 1224.48V1485.79C1723.64 1490.56 1721.66 1492.94 1717.49 1492.94H1694.46C1690.09 1492.94 1687.9 1490.56 1687.9 1485.79V1224.48Z" fill="#0F1826"/>
<path d="M1826.5 1301.72L1819.55 1276.7L1821.94 1301.72L1823.53 1485.99C1823.73 1490.56 1821.94 1492.94 1817.77 1492.94H1795.13C1793.14 1492.94 1791.56 1492.35 1790.96 1490.96C1790.17 1489.77 1789.77 1487.98 1789.77 1485.79V1223.49C1789.97 1221.5 1790.36 1219.91 1791.36 1218.92C1792.35 1217.73 1793.74 1217.13 1795.53 1217.13H1822.73C1824.32 1217.13 1825.51 1217.73 1826.3 1218.72C1827.1 1219.71 1827.69 1221.1 1828.29 1222.89L1891.83 1391.47L1895 1407.56L1898.19 1391.28L1962.13 1222.89C1962.72 1221.1 1963.51 1219.71 1964.11 1218.72C1964.9 1217.73 1966.1 1217.13 1967.68 1217.13H1994.49C1996.28 1217.13 1997.67 1217.73 1998.66 1218.92C1999.65 1220.11 2000.25 1221.7 2000.25 1223.49V1485.79C2000.45 1490.56 1998.86 1492.94 1995.08 1492.94H1972.45C1968.68 1492.94 1966.69 1490.56 1966.69 1485.99L1968.48 1301.92L1970.66 1277.5L1964.11 1301.92L1910.1 1444.29C1909.51 1446.48 1908.71 1448.07 1907.72 1448.86C1906.72 1449.66 1905.53 1450.05 1903.94 1450.05H1886.47C1885.08 1450.05 1883.89 1449.66 1882.89 1448.86C1882.1 1448.07 1881.3 1446.48 1880.51 1444.29L1826.5 1301.72Z" fill="#0F1826"/>
<path d="M1760.38 307.292L1719.87 314.242C1637.47 328.539 1560.82 350.381 1490.93 375.997V154.99L1469.48 164.72C1420.63 186.761 1374.16 209.596 1329.88 233.822L1328.5 2.29095L1305.06 17.1836C1191.08 90.0581 1086.64 172.663 993.314 263.607C903.363 178.62 802.094 96.2141 690.895 17.5811L666.869 0.503906V240.573C618.617 213.568 569.368 188.746 518.932 166.705L497.485 157.373L498.484 362.891C424.616 337.474 350.344 320.993 276.675 313.448L240.539 309.675L530.645 672.261L529.258 406.774C579.099 426.234 625.165 448.474 667.063 471.309V701.053L670.04 705.024C755.424 819.797 979.813 1006.65 989.145 1014.59L998.87 1022.73L1008.6 1014.79C1018.14 1007.05 1242.71 822.179 1328.1 702.84L1333.06 694.301L1331.68 480.444C1370.99 459.792 1414.08 439.34 1460.74 420.476V673.452L1760.38 307.292ZM1490.93 408.76C1550.3 386.322 1614.83 366.862 1683.93 352.367L1490.93 588.067V408.76ZM310.232 348.594C376.951 358.125 439.901 374.805 498.28 395.655L499.269 584.692L310.232 348.594ZM1297.91 58.2873L1298.31 251.693C1230.01 290.811 1167.06 333.304 1107.69 380.166C1094.78 366.068 1081.47 351.771 1067.97 337.673C1050.89 320 1033.22 302.328 1015.15 284.854C1100.14 201.654 1194.26 126.396 1297.91 58.2873ZM784.023 507.449C755.429 488.187 726.436 470.316 697.246 453.637V293.988C754.037 328.34 808.842 366.068 861.462 406.973C834.656 439.34 808.844 472.898 784.023 507.449ZM885.091 425.837C914.876 449.864 944.068 475.082 972.265 501.293C944.863 528.894 918.254 557.686 892.043 588.266C867.817 568.409 840.019 546.765 808.844 524.923C833.466 490.769 858.88 457.807 885.091 425.837ZM1084.06 399.229C1053.08 424.646 1023.3 451.452 994.109 479.649C965.118 452.842 935.333 427.028 904.754 402.406C933.149 369.245 962.73 337.077 993.508 306.101C1025.48 336.879 1055.66 367.855 1084.06 399.229ZM1079.49 609.115C1038.58 641.879 1010.19 668.487 995.69 682.983C981.592 668.289 954.392 641.085 915.671 607.726C941.485 577.742 967.696 549.346 994.701 522.142C1023.89 550.141 1052.09 579.132 1079.49 609.115ZM895.814 631.157C952.009 679.607 983.386 714.754 983.784 715.151L994.904 727.661L1006.41 715.35C1006.81 714.952 1039.57 680.203 1099.94 631.951C1119.2 653.794 1137.87 676.231 1155.94 699.067L999.665 846.802L841.014 700.258C859.084 676.43 877.347 653.396 895.814 631.157ZM1016.55 500.697C1045.14 473.096 1074.33 446.886 1104.71 422.064C1135.69 457.211 1164.68 492.556 1191.09 528.1C1188.31 529.887 1185.53 531.873 1182.75 533.66C1153.36 553.318 1126.95 572.579 1103.72 590.252C1075.52 559.275 1046.53 529.291 1016.55 500.697ZM1128.14 403.001C1181.36 360.905 1237.75 322.581 1298.31 287.038L1298.51 463.565C1268.72 479.848 1241.32 495.931 1216.5 511.618C1189.49 475.28 1159.91 439.141 1128.14 403.001ZM697.246 59.8756C798.317 132.75 890.251 208.207 971.664 285.053C955.778 301.137 940.094 317.419 924.804 333.9C909.912 349.984 895.412 366.664 881.116 383.343C822.339 337.474 760.986 295.576 697.246 258.047V59.8756ZM572.947 391.684C558.253 385.329 543.555 379.571 528.861 374.011L528.065 204.433C575.325 225.879 621.596 249.707 666.869 275.72V436.56C635.694 420.078 604.321 405.186 572.947 391.684ZM766.551 532.27C742.524 567.019 719.287 602.761 697.246 639.496V488.783C722.266 503.477 745.304 518.171 766.551 532.27ZM998.676 983.218C955.19 946.483 777.267 794.181 700.223 695.096C728.816 644.659 759.199 596.208 791.566 549.545C821.748 570.792 848.755 591.84 872.583 611.3C850.939 637.312 829.494 664.516 808.446 692.713L800.108 703.634L1000.06 888.501L1197.24 702.046L1188.7 691.124C1167.85 664.317 1146.41 638.305 1124.17 612.888C1146.41 595.811 1171.63 577.543 1199.82 558.68C1203 556.694 1206.18 554.509 1209.35 552.325C1242.91 598.989 1272.5 645.851 1297.72 692.514C1220.68 795.174 1042.36 946.681 998.676 983.218ZM1298.9 633.738C1279.44 601.372 1258.2 568.806 1234.77 536.241C1254.43 523.93 1275.87 511.023 1298.71 498.315L1298.9 633.738ZM1331.28 446.091L1330.09 268.571C1371.59 245.339 1414.88 223.298 1460.35 202.249V387.513C1413.88 405.98 1370.79 425.837 1331.28 446.091Z" fill="#0EB182"/>
</svg>
