<svg xmlns="http://www.w3.org/2000/svg" viewBox="0 0 512 512" width="512" height="512">
  <rect width="512" height="512" rx="96" fill="#0F1826"/>
  <g transform="translate(92.0,145.5) scale(0.1639)">
    <path d="M2000.38 403.989L1947.15 413.227C1838.7 432.078 1737.85 460.792 1645.98 494.624V203.492L1617.68 216.226C1553.23 245.19 1492.28 275.401 1434.06 307.361L1432.07 2.24706L1401.28 21.9723C1251.31 117.851 1113.82 226.838 991.153 346.811C872.978 234.828 739.595 126.09 593.248 22.4714L561.46 0V316.225C498.134 280.52 433.062 248.061 366.745 218.973L338.448 206.613L339.819 477.396C242.711 443.938 144.98 422.216 47.9971 412.354L0.37793 407.485L382.078 885.254L380.333 535.573C445.902 561.165 506.61 590.503 561.584 620.59V923.332L565.573 928.7C677.765 1080.01 973.078 1326.07 985.543 1336.56L998.259 1347.17L1011.1 1336.56C1023.56 1326.32 1319 1082.75 1431.32 925.454L1437.92 914.094L1436.18 632.2C1487.79 604.985 1544.51 578.143 1605.84 553.3V886.628L2000.38 403.989ZM1645.98 537.445C1724.14 507.982 1809.03 482.14 1899.9 463.164L1645.98 773.646V537.445ZM92.375 458.17C180.134 470.779 263.03 492.876 339.819 520.216L341.065 769.401L92.375 458.17ZM1392.05 75.7792L1392.42 330.581C1302.67 382.266 1219.65 438.195 1141.61 499.992C1124.66 481.266 1107.21 462.664 1089.26 443.938C1066.82 420.593 1043.63 397.372 1019.82 374.276C1131.77 264.79 1255.55 165.665 1392.05 75.7792ZM715.91 667.531C678.263 642.188 640.243 618.467 601.724 596.62V386.261C676.394 431.454 748.446 481.141 817.755 535.198C782.477 577.894 748.445 622.088 715.91 667.531ZM848.92 560.041C888.187 591.751 926.456 624.959 963.604 659.416C927.702 695.745 892.549 733.821 858.144 773.896C826.232 747.679 789.707 719.34 748.819 690.376C780.856 645.558 814.14 602.113 848.92 560.041ZM1110.57 524.961C1069.94 558.543 1030.55 593.748 992.275 630.951C954.13 595.621 914.987 561.664 874.848 529.205C912.245 485.511 951.138 443.19 991.527 402.241C1033.41 442.94 1073.18 483.887 1110.57 524.961ZM1104.47 801.611C1050.61 844.931 1013.34 879.887 994.145 898.863C975.571 879.387 939.919 843.682 888.934 799.738C922.841 760.288 957.496 722.711 992.898 687.006C1031.42 723.834 1068.57 762.036 1104.47 801.611ZM862.881 830.574C936.678 894.369 977.939 940.685 978.563 941.309L993.147 957.913L1008.23 941.808C1008.85 941.184 1051.99 895.367 1131.27 831.822C1156.45 860.661 1181.01 890.124 1204.94 920.336L999.38 1114.96L790.704 921.709C814.638 890.124 838.573 859.912 862.881 830.574ZM1021.69 658.667C1059.22 622.338 1097.73 587.881 1137.5 555.048C1178.39 601.489 1216.28 648.055 1251.19 694.746C1247.45 697.243 1243.71 699.615 1240.09 702.111C1201.33 728.079 1166.67 753.297 1136.13 776.767C1099.36 735.944 1061.09 696.494 1021.69 658.667ZM1168.54 529.955C1238.6 474.649 1312.77 424.089 1392.42 377.148L1392.8 609.604C1353.66 630.952 1317.51 652.3 1284.85 672.899C1249.32 625.334 1210.42 577.519 1168.54 529.955ZM601.724 77.9013C734.858 174.03 855.526 273.404 962.732 374.651C941.789 395.874 921.221 417.347 901.151 439.069C881.58 460.417 862.382 482.14 843.559 504.237C766.271 443.814 685.494 388.758 601.599 339.196V77.9013H601.724ZM438.049 515.223C418.727 506.984 399.406 499.119 379.959 491.878L378.837 268.535C441.041 296.874 501.998 328.209 561.335 362.541V574.523C520.572 552.676 479.435 532.826 438.049 515.223ZM692.724 700.488C660.936 746.305 630.645 793.371 601.724 841.685V643.186C634.509 662.412 664.925 681.762 692.724 700.488ZM998.259 1294.61C941.041 1246.17 706.935 1045.43 605.588 914.967C643.235 848.551 683.25 784.632 725.633 723.335C765.274 751.424 800.926 779.014 832.09 804.732C803.544 839.063 775.497 874.768 747.698 912.096L736.852 926.578L999.879 1170.02L1259.42 924.33L1248.2 909.849C1220.77 874.643 1192.47 840.312 1163.18 806.854C1192.47 784.382 1225.76 760.288 1262.66 735.569C1266.77 732.822 1270.88 730.076 1275.12 727.205C1319.25 788.752 1358.02 850.424 1391.3 911.846C1290.33 1046.8 1055.73 1246.55 998.259 1294.61ZM1393.17 834.194C1367.62 791.498 1339.57 748.553 1308.66 705.607C1334.58 689.253 1362.76 672.524 1392.8 655.671L1393.17 834.194ZM1435.81 586.882L1434.31 353.054C1488.78 322.467 1545.75 293.504 1605.84 265.664V509.73C1544.63 534.074 1487.79 560.166 1435.81 586.882Z" fill="#0EB182"/>
  </g>
</svg>